# xmcd
#
# Track frame offsets: 
#        150
#        14905
#        28347
#        45970
#        62882
#        75085
#        95377
#        128230
#        145312
#        169795
#        188522
#        204905
#
# Disc length: 2855 seconds
#
# Revision: 0
# Processed by: cddbd v1.5.2PL0 Copyright (c) Steve Scherf et al.
# Submitted via: ExactAudioCopyFreeDBPlugin 1.0
#
DISCID=990b250c
DTITLE=The Goads - Four
DYEAR=2000
DGENRE=Christian
TTITLE0=Job, Job, Bye, Bye
TTITLE1=Who Wants To Be A Millionaire?
TTITLE2=Put A Little Dream Back
TTITLE3=Chasing Your Dreams
TTITLE4=The Angels Appear (Carolyn's Wedding Song)
TTITLE5=I'll Show You
TTITLE6=Man Who Walks
TTITLE7=Dreaming With You
TTITLE8=Gonna Be Free
TTITLE9=I'm Gonna Win
TTITLE10=Some Will, Some Won't, So What!
TTITLE11=Freedom
EXTD=
EXTT0=
EXTT1=
EXTT2=
EXTT3=
EXTT4=
EXTT5=
EXTT6=
EXTT7=
EXTT8=
EXTT9=
EXTT10=
EXTT11=
PLAYORDER=
